<?xml version="1.0" encoding="UTF-8"?><svg id="Layer_1" xmlns="http://www.w3.org/2000/svg" xmlns:xlink="http://www.w3.org/1999/xlink" viewBox="100 400 850 250"><defs><style>.cls-1{clip-path:url(#clippath-51);}.cls-2{clip-path:url(#clippath-34);}.cls-3{fill:url(#linear-gradient-15);}.cls-4{fill:url(#linear-gradient-13);}.cls-5{fill:url(#linear-gradient-28);}.cls-6{clip-path:url(#clippath-38);}.cls-7{clip-path:url(#clippath-21);}.cls-8{clip-path:url(#clippath-6);}.cls-9{clip-path:url(#clippath-7);}.cls-10{clip-path:url(#clippath-17);}.cls-11{clip-path:url(#clippath-31);}.cls-12{clip-path:url(#clippath-15);}.cls-13{clip-path:url(#clippath-33);}.cls-14{clip-path:url(#clippath-18);}.cls-15{clip-path:url(#clippath-47);}.cls-16{clip-path:url(#clippath-4);}.cls-17{fill:url(#linear-gradient-2);}.cls-18{clip-path:url(#clippath-22);}.cls-19{clip-path:url(#clippath-23);}.cls-20{fill:url(#linear-gradient-25);}.cls-21{fill:url(#linear-gradient-10);}.cls-22{fill:url(#linear-gradient-12);}.cls-23{fill:url(#linear-gradient-40);}.cls-24{fill:url(#linear-gradient-27);}.cls-25{clip-path:url(#clippath-54);}.cls-26{fill:url(#linear-gradient-37);}.cls-27{clip-path:url(#clippath-9);}.cls-28{clip-path:url(#clippath-10);}.cls-29{clip-path:url(#clippath-42);}.cls-30{clip-path:url(#clippath-59);}.cls-31{fill:#fff;}.cls-32{fill:url(#linear-gradient-39);}.cls-33{clip-path:url(#clippath-43);}.cls-34{clip-path:url(#clippath-25);}.cls-35{clip-path:url(#clippath-27);}.cls-36{clip-path:url(#clippath-60);}.cls-37{fill:url(#linear-gradient-26);}.cls-38{clip-path:url(#clippath-11);}.cls-39{clip-path:url(#clippath-57);}.cls-40{fill:none;}.cls-41{fill:url(#linear-gradient-4);}.cls-42{fill:url(#linear-gradient-35);}.cls-43{fill:url(#linear-gradient-30);}.cls-44{clip-path:url(#clippath-36);}.cls-45{clip-path:url(#clippath-35);}.cls-46{clip-path:url(#clippath-48);}.cls-47{clip-path:url(#clippath-28);}.cls-48{fill:url(#linear-gradient-3);}.cls-49{fill:url(#linear-gradient-34);}.cls-50{clip-path:url(#clippath-1);}.cls-51{clip-path:url(#clippath-56);}.cls-52{fill:url(#linear-gradient-5);}.cls-53{fill:url(#linear-gradient-38);}.cls-54{fill:url(#linear-gradient-22);}.cls-55{fill:url(#linear-gradient-24);}.cls-56{clip-path:url(#clippath-45);}.cls-57{clip-path:url(#clippath-46);}.cls-58{clip-path:url(#clippath-40);}.cls-59{clip-path:url(#clippath-5);}.cls-60{clip-path:url(#clippath-20);}.cls-61{fill:url(#linear-gradient-33);}.cls-62{clip-path:url(#clippath-8);}.cls-63{fill:url(#linear-gradient-8);}.cls-64{clip-path:url(#clippath-52);}.cls-65{clip-path:url(#clippath-41);}.cls-66{clip-path:url(#clippath-3);}.cls-67{clip-path:url(#clippath-26);}.cls-68{clip-path:url(#clippath-12);}.cls-69{clip-path:url(#clippath-50);}.cls-70{fill:url(#linear-gradient-14);}.cls-71{clip-path:url(#clippath-14);}.cls-72{fill:url(#linear-gradient-29);}.cls-73{fill:url(#linear-gradient-20);}.cls-74{fill:url(#linear-gradient-17);}.cls-75{fill:url(#linear-gradient-7);}.cls-76{clip-path:url(#clippath-30);}.cls-77{clip-path:url(#clippath-19);}.cls-78{fill:url(#linear-gradient-9);}.cls-79{fill:url(#linear-gradient-11);}.cls-80{clip-path:url(#clippath-32);}.cls-81{fill:url(#linear-gradient-19);}.cls-82{fill:url(#linear-gradient-6);}.cls-83{clip-path:url(#clippath-55);}.cls-84{clip-path:url(#clippath-53);}.cls-85{clip-path:url(#clippath-39);}.cls-86{fill:url(#linear-gradient-36);}.cls-87{fill:url(#linear-gradient-21);}.cls-88{clip-path:url(#clippath-16);}.cls-89{clip-path:url(#clippath-2);}.cls-90{clip-path:url(#clippath-29);}.cls-91{clip-path:url(#clippath-49);}.cls-92{fill:url(#linear-gradient-32);}.cls-93{clip-path:url(#clippath-37);}.cls-94{fill:url(#linear-gradient-41);}.cls-95{clip-path:url(#clippath-58);}.cls-96{clip-path:url(#clippath-13);}.cls-97{fill:url(#linear-gradient-16);}.cls-98{fill:url(#linear-gradient);}.cls-99{clip-path:url(#clippath-24);}.cls-100{fill:url(#linear-gradient-23);}.cls-101{fill:url(#linear-gradient-31);}.cls-102{clip-path:url(#clippath);}.cls-103{clip-path:url(#clippath-44);}.cls-104{fill:url(#linear-gradient-18);}</style><clipPath id="clippath"><rect class="cls-40" width="1080" height="1080"/></clipPath><clipPath id="clippath-1"><rect class="cls-40" width="1080" height="1080"/></clipPath><clipPath id="clippath-2"><rect class="cls-40" x="1100" width="1080" height="1080"/></clipPath><clipPath id="clippath-3"><path class="cls-40" d="M1584.277,242.667c-19.41,0-37.014,11.762-44.444,29.693l-213.604,515.486c-9.77,23.58,7.539,49.487,33.062,49.487h100.689l75.894-186.763c6.503-16.002,25.315-22.963,40.668-15.047l182.851,94.276c12.272,6.328,21.947,16.868,27.202,29.635l32.069,77.899h102.044c25.523,0,42.833-25.907,33.063-49.487l-56.561-136.495-279.963-142.315c-16.131-8.2-23.185-27.503-16.143-44.172l93.87-222.197h-110.697Z"/></clipPath><clipPath id="clippath-4"><rect class="cls-40" x="1207.939" y="102.729" width="864.123" height="874.542" transform="translate(223.135 1526.758) rotate(-53.08)"/></clipPath><linearGradient id="linear-gradient" x1="3295.786" y1="1083.166" x2="3296.786" y2="1083.166" gradientTransform="translate(679792.314 -2063075.716) rotate(90) scale(626.083)" gradientUnits="userSpaceOnUse"><stop offset="0" stop-color="#fff"/><stop offset=".154" stop-color="#f5f6f6"/><stop offset=".41" stop-color="#dbdedf"/><stop offset=".736" stop-color="#b2b7b9"/><stop offset="1" stop-color="#8c9496"/></linearGradient><clipPath id="clippath-5"><rect class="cls-40" width="1080" height="1080"/></clipPath><clipPath id="clippath-6"><path class="cls-40" d="M229.145,519.97c-1.575,3.735.005,8.058,3.618,9.896l62.363,31.733.627-5.16-58.618-29.863c-2.582-1.314-3.711-4.404-2.587-7.073l22.526-53.554-4.203-2.255-23.726,56.276Z"/></clipPath><linearGradient id="linear-gradient-2" x1="3304.712" y1="1049.764" x2="3305.712" y2="1049.764" gradientTransform="translate(-112942.835 356913.673) rotate(-90) scale(107.838)" gradientUnits="userSpaceOnUse"><stop offset="0" stop-color="#0d152c"/><stop offset="1" stop-color="#90d3d0"/></linearGradient><clipPath id="clippath-7"><path class="cls-40" d="M208.412,579.379l-17.681,43.424,5.548.221,15.589-38.191c1.463-3.603,4.26-4.553,7.717-2.771l42.203,21.436c2.762,1.424,4.94,3.798,6.124,6.671l5.65,13.724,5.441-.469-6.463-15.702c-1.349-3.276-3.832-5.979-6.981-7.604l-47.432-24.294c-1.185-.61-2.385-.904-3.529-.904-2.661,0-5.019,1.587-6.186,4.459"/></clipPath><linearGradient id="linear-gradient-3" x1="3272.482" y1="1089.031" x2="3273.482" y2="1089.031" gradientTransform="translate(124321.526 -372306.53) rotate(90) scale(113.942)" xlink:href="#linear-gradient-2"/><clipPath id="clippath-8"><path class="cls-40" d="M223.743,520.435c-2.028,4.801.003,10.362,4.649,12.722l80.633,40.989-13.899-12.547-62.363-31.733c-3.613-1.838-5.193-6.161-3.618-9.896l23.726-56.276-2.393-6.543-26.735,63.284Z"/></clipPath><linearGradient id="linear-gradient-4" x1="3318.423" y1="1059.916" x2="3319.423" y2="1059.916" gradientTransform="translate(-128072.589 402398.015) rotate(-90) scale(121.083)" gradientUnits="userSpaceOnUse"><stop offset="0" stop-color="#fff"/><stop offset="1" stop-color="#8c9496"/></linearGradient><clipPath id="clippath-9"><path class="cls-40" d="M204.956,573.921l-21.858,53.789,7.633-4.907,17.681-43.424c1.669-4.108,5.775-5.586,9.715-3.555l47.432,24.294c3.149,1.625,5.632,4.328,6.981,7.604l6.463,15.702,7.399,4.286-9.235-22.436c-1.514-3.675-4.301-6.712-7.835-8.533l-52.663-27.154c-1.245-.642-2.57-.944-3.871-.944-3.322,0-6.496,1.966-7.842,5.278"/></clipPath><linearGradient id="linear-gradient-5" x1="3255.412" y1="1083.934" x2="3256.412" y2="1083.934" gradientTransform="translate(80146.435 -239436.954) rotate(90) scale(73.724)" xlink:href="#linear-gradient-4"/><clipPath id="clippath-10"><path class="cls-40" d="M218.896,456.44c-5.59,0-10.66,3.387-12.8,8.551l-61.52,148.466c-2.814,6.792,2.171,14.253,9.522,14.253h29l21.858-53.789c1.873-4.61,7.291-6.614,11.713-4.334l52.663,27.154c3.534,1.821,6.321,4.858,7.835,8.533l9.235,22.436h29.391c7.35,0,12.336-7.461,9.522-14.253l-16.29-39.311-80.633-40.989c-4.646-2.36-6.677-7.921-4.649-12.722l27.036-63.995h-31.883Z"/></clipPath><linearGradient id="linear-gradient-6" x1="3285.369" y1="1090.993" x2="3286.369" y2="1090.993" gradientTransform="translate(196962.076 -591924.835) rotate(90) scale(180.319)" xlink:href="#linear-gradient"/><clipPath id="clippath-11"><path class="cls-40" d="M257.074,465.949l-22.526,53.554c-1.124,2.669.005,5.759,2.587,7.073l58.618,29.863,4.648-3.105-58.895-30.051c-1.549-.79-2.227-2.644-1.555-4.248l22.718-54.15-5.595,1.064Z"/></clipPath><linearGradient id="linear-gradient-7" x1="3224.404" y1="1284.555" x2="3225.404" y2="1284.555" gradientTransform="translate(19705.171 -48287.741) rotate(90) scale(15.132)" gradientUnits="userSpaceOnUse"><stop offset="0" stop-color="#fff"/><stop offset="1" stop-color="#b3b4b4"/></linearGradient><clipPath id="clippath-12"><path class="cls-40" d="M239.951,519.035c-.672,1.604.006,3.458,1.555,4.248l58.895,30.051-34.244-82.64c-.884-2.131-2.066-4.081-3.488-5.809l-22.718,54.15Z"/></clipPath><linearGradient id="linear-gradient-8" x1="3245.643" y1="1080" x2="3246.643" y2="1080" gradientTransform="translate(-196801.883 -65057.224) scale(60.71)" xlink:href="#linear-gradient-7"/><clipPath id="clippath-13"><path class="cls-40" d="M211.868,584.833l-15.589,38.191,3.723,4.686,15.322-37.42c1.259-3.1,2.744-3.523,5.719-1.991l36.972,18.576c2.377,1.226,4.252,3.268,5.27,5.742l6.214,15.093,4.063-3.817-5.65-13.724c-1.184-2.873-3.362-5.247-6.124-6.671l-42.203-21.436c-1.133-.584-2.195-.874-3.162-.874-1.985,0-3.571,1.224-4.555,3.645"/></clipPath><linearGradient id="linear-gradient-9" x1="2947.043" y1="1044.704" x2="2948.043" y2="1044.704" gradientTransform="translate(-27200.587 -9114.613) scale(9.303)" gradientUnits="userSpaceOnUse"><stop offset="0" stop-color="#fff"/><stop offset="1" stop-color="#cccccb"/></linearGradient><clipPath id="clippath-14"><path class="cls-40" d="M215.324,590.29l-15.322,37.42h69.497l-6.214-15.093c-1.018-2.474-2.893-4.516-5.27-5.742l-36.972-18.576c-1.092-.563-1.983-.862-2.736-.862-1.298,0-2.186.89-2.983,2.853"/></clipPath><linearGradient id="linear-gradient-10" x1="3252.516" y1="1080" x2="3253.516" y2="1080" gradientTransform="translate(-225840.078 -74449.18) scale(69.497)" xlink:href="#linear-gradient-9"/><clipPath id="clippath-15"><rect class="cls-40" width="1080" height="1080"/></clipPath><clipPath id="clippath-16"><rect class="cls-40" x="1100" width="1080" height="1080"/></clipPath><clipPath id="clippath-17"><path class="cls-40" d="M1619.862,463.244c-5.472,12.969.016,27.982,12.562,34.364l216.53,110.181,2.175-17.918-203.528-103.689c-8.962-4.563-12.885-15.289-8.98-24.558l78.213-185.94-14.594-7.835-82.378,195.395Z"/></clipPath><linearGradient id="linear-gradient-11" x1="3300.905" y1="1074.194" x2="3301.905" y2="1074.194" gradientTransform="translate(-400469.978 1236465.813) rotate(-90) scale(374.423)" xlink:href="#linear-gradient-2"/><clipPath id="clippath-18"><path class="cls-40" d="M1547.874,669.516l-61.39,150.774,19.265.772,54.124-132.602c5.083-12.511,14.791-15.812,26.793-9.621l146.533,74.421c9.593,4.947,17.155,13.187,21.266,23.169l19.616,47.651,18.89-1.635-22.441-54.514c-4.682-11.375-13.301-20.764-24.235-26.401l-164.691-84.349c-4.114-2.122-8.282-3.141-12.255-3.141-9.236-.001-17.424,5.506-21.475,15.476"/></clipPath><linearGradient id="linear-gradient-12" x1="3294.716" y1="1081.734" x2="3295.716" y2="1081.734" gradientTransform="translate(429591.683 -1302817.251) rotate(90) scale(395.617)" xlink:href="#linear-gradient-2"/><clipPath id="clippath-19"><path class="cls-40" d="M1601.104,464.864c-7.042,16.669.012,35.972,16.143,44.172l279.963,142.315-48.256-43.562-216.53-110.181c-12.546-6.382-18.034-21.395-12.562-34.364l82.378-195.395-8.308-22.719-92.828,219.734Z"/></clipPath><linearGradient id="linear-gradient-13" x1="3303.537" y1="1076.144" x2="3304.537" y2="1076.144" gradientTransform="translate(-450676.553 1389558.543) rotate(-90) scale(420.41)" xlink:href="#linear-gradient-4"/><clipPath id="clippath-20"><path class="cls-40" d="M1535.874,650.57l-75.894,186.763,26.504-17.043,61.39-150.774c5.794-14.258,20.051-19.389,33.73-12.335l164.691,84.349c10.934,5.637,19.553,15.026,24.235,26.401l22.441,54.514,25.693,14.888-32.069-77.899c-5.255-12.767-14.93-23.307-27.202-29.635l-182.851-94.276c-4.323-2.229-8.923-3.278-13.442-3.279-11.531,0-22.554,6.829-27.226,18.326"/></clipPath><linearGradient id="linear-gradient-14" x1="3291.439" y1="1080.755" x2="3292.439" y2="1080.755" gradientTransform="translate(278285.494 -841908.973) rotate(90) scale(255.975)" xlink:href="#linear-gradient-4"/><clipPath id="clippath-21"><path class="cls-40" d="M1584.277,242.667c-19.41,0-37.014,11.762-44.444,29.693l-213.604,515.486c-9.77,23.58,7.539,49.487,33.062,49.487h100.689l75.894-186.763c6.503-16.002,25.315-22.963,40.668-15.047l182.851,94.276c12.272,6.328,21.947,16.868,27.202,29.635l32.069,77.899h102.044c25.523,0,42.833-25.907,33.063-49.487l-56.561-136.495-279.963-142.315c-16.131-8.2-23.185-27.503-16.143-44.172l93.87-222.197h-110.697Z"/></clipPath><linearGradient id="linear-gradient-15" x1="3297.191" y1="1082.111" x2="3298.191" y2="1082.111" gradientTransform="translate(679131.378 -2063955.191) rotate(90) scale(626.083)" xlink:href="#linear-gradient"/><clipPath id="clippath-22"><path class="cls-40" d="M1716.834,275.684l-78.213,185.94c-3.905,9.269.018,19.995,8.98,24.558l203.528,103.689,16.14-10.779-204.491-104.337c-5.377-2.745-7.734-9.181-5.399-14.75l78.881-188.014-19.426,3.693Z"/></clipPath><linearGradient id="linear-gradient-16" x1="3285.485" y1="1119.276" x2="3286.485" y2="1119.276" gradientTransform="translate(60558.353 -172210.38) rotate(90) scale(52.541)" xlink:href="#linear-gradient-7"/><clipPath id="clippath-23"><path class="cls-40" d="M1657.379,460.005c-2.335,5.569.022,12.005,5.399,14.75l204.491,104.337-118.9-286.938c-3.066-7.399-7.175-14.166-12.109-20.163l-78.881,188.014Z"/></clipPath><linearGradient id="linear-gradient-17" x1="3289.563" y1="1080" x2="3290.563" y2="1080" gradientTransform="translate(-691745.865 -227226.135) scale(210.789)" xlink:href="#linear-gradient-7"/><clipPath id="clippath-24"><path class="cls-40" d="M1559.873,688.46l-54.124,132.602,12.922,16.271,53.201-129.928c4.375-10.765,9.528-12.235,19.856-6.909l128.372,64.495c8.255,4.256,14.763,11.348,18.299,19.935l21.574,52.407,14.108-13.253-19.616-47.651c-4.111-9.982-11.673-18.222-21.266-23.169l-146.533-74.421c-3.933-2.029-7.62-3.038-10.979-3.038-6.889-.001-12.397,4.247-15.814,12.659"/></clipPath><linearGradient id="linear-gradient-18" x1="3232.229" y1="1073.223" x2="3233.229" y2="1073.223" gradientTransform="translate(-102830.357 -33910.006) scale(32.301)" xlink:href="#linear-gradient-9"/><clipPath id="clippath-25"><path class="cls-40" d="M1582.229,697.502c-4.507,0-7.588,3.09-10.357,9.903l-53.201,129.928h241.302l-21.574-52.407c-3.536-8.587-10.044-15.679-18.299-19.935l-128.372-64.495c-3.789-1.954-6.883-2.994-9.495-2.994h-.004"/></clipPath><linearGradient id="linear-gradient-19" x1="3290.883" y1="1080" x2="3291.883" y2="1080" gradientTransform="translate(-792577.935 -259838.745) scale(241.302)" xlink:href="#linear-gradient-9"/><clipPath id="clippath-26"><rect class="cls-40" x="1100" width="1080" height="1080"/></clipPath><clipPath id="clippath-27"><rect class="cls-40" x="2200" width="1080" height="1080"/></clipPath><clipPath id="clippath-28"><path class="cls-40" d="M2684.277,242.667c-19.41,0-37.014,11.762-44.444,29.693l-213.604,515.486c-9.77,23.58,7.539,49.487,33.062,49.487h100.689l75.894-186.763c6.503-16.002,25.315-22.963,40.668-15.047l182.851,94.276c12.272,6.328,21.947,16.868,27.202,29.635l32.069,77.899h102.044c25.523,0,42.833-25.907,33.063-49.487l-56.561-136.495-279.963-142.315c-16.131-8.2-23.185-27.503-16.143-44.172l93.87-222.197h-110.697Z"/></clipPath><clipPath id="clippath-29"><rect class="cls-40" x="2307.939" y="102.729" width="864.123" height="874.542" transform="translate(662.363 2406.18) rotate(-53.08)"/></clipPath><linearGradient id="linear-gradient-20" x1="3297.191" y1="1082.111" x2="3298.191" y2="1082.111" gradientTransform="translate(680231.543 -2063955.137) rotate(90) scale(626.083)" xlink:href="#linear-gradient"/><clipPath id="clippath-30"><rect class="cls-40" x="2200" width="1080" height="1080"/></clipPath><clipPath id="clippath-31"><rect class="cls-40" x="2200" width="1080" height="1080"/></clipPath><clipPath id="clippath-32"><rect class="cls-40" x="1100" width="1080" height="1080"/></clipPath><clipPath id="clippath-33"><path class="cls-40" d="M1584.277,242.667c-19.41,0-37.014,11.762-44.444,29.693l-213.604,515.486c-9.77,23.58,7.539,49.487,33.062,49.487h100.689l75.894-186.763c6.503-16.002,25.315-22.963,40.668-15.047l182.851,94.276c12.272,6.328,21.947,16.868,27.202,29.635l32.069,77.899h102.044c25.523,0,42.833-25.907,33.063-49.487l-56.561-136.495-279.963-142.315c-16.131-8.2-23.185-27.503-16.143-44.172l93.87-222.197h-110.697Z"/></clipPath><clipPath id="clippath-34"><rect class="cls-40" x="1207.939" y="102.729" width="864.123" height="874.542" transform="translate(223.135 1526.758) rotate(-53.08)"/></clipPath><linearGradient id="linear-gradient-21" x1="3298.595" y1="1081.055" x2="3299.595" y2="1081.055" gradientTransform="translate(678470.824 -2064834.541) rotate(90) scale(626.083)" xlink:href="#linear-gradient"/><clipPath id="clippath-35"><rect class="cls-40" x="2200" width="1080" height="1080"/></clipPath><linearGradient id="linear-gradient-22" x1="3300.632" y1="1079.201" x2="3301.632" y2="1079.201" gradientTransform="translate(-1162797.437 3565738.881) rotate(-90) scale(1080)" gradientUnits="userSpaceOnUse"><stop offset="0" stop-color="#0d152c"/><stop offset=".11" stop-color="#111b31"/><stop offset=".263" stop-color="#1d2d41"/><stop offset=".441" stop-color="#324b5a"/><stop offset=".639" stop-color="#4e747e"/><stop offset=".85" stop-color="#73a9ab"/><stop offset="1" stop-color="#90d3d0"/></linearGradient><clipPath id="clippath-36"><path class="cls-40" d="M2719.862,463.244c-5.472,12.969.016,27.982,12.562,34.364l216.53,110.181,2.175-17.918-203.528-103.689c-8.962-4.563-12.885-15.289-8.98-24.558l78.213-185.94-14.594-7.835-82.378,195.395Z"/></clipPath><linearGradient id="linear-gradient-23" x1="3300.452" y1="1077.097" x2="3301.452" y2="1077.097" gradientTransform="translate(-400456.858 1236296.428) rotate(-90) scale(374.423)" xlink:href="#linear-gradient-2"/><clipPath id="clippath-37"><path class="cls-40" d="M2647.874,669.516l-61.39,150.774,19.265.772,54.124-132.602c5.083-12.511,14.791-15.812,26.793-9.621l146.533,74.421c9.593,4.947,17.155,13.187,21.266,23.169l19.616,47.651,18.89-1.635-22.441-54.514c-4.682-11.375-13.301-20.764-24.235-26.401l-164.691-84.349c-4.114-2.122-8.282-3.141-12.255-3.141-9.236-.001-17.424,5.506-21.475,15.476"/></clipPath><linearGradient id="linear-gradient-24" x1="3297.358" y1="1080.867" x2="3298.358" y2="1080.867" gradientTransform="translate(430348.678 -1303862.405) rotate(90) scale(395.617)" xlink:href="#linear-gradient-2"/><clipPath id="clippath-38"><path class="cls-40" d="M2701.104,464.864c-7.042,16.669.012,35.972,16.143,44.172l279.963,142.315-48.256-43.562-216.53-110.181c-12.546-6.382-18.034-21.395-12.562-34.364l82.378-195.395-8.308-22.719-92.828,219.734Z"/></clipPath><linearGradient id="linear-gradient-25" x1="3301.769" y1="1078.072" x2="3302.769" y2="1078.072" gradientTransform="translate(-450387.157 1388814.957) rotate(-90) scale(420.41)" xlink:href="#linear-gradient-4"/><clipPath id="clippath-39"><path class="cls-40" d="M2635.874,650.57l-75.894,186.763,26.504-17.043,61.39-150.774c5.794-14.258,20.051-19.389,33.73-12.335l164.691,84.349c10.934,5.637,19.553,15.026,24.235,26.401l22.441,54.514,25.693,14.888-32.069-77.899c-5.255-12.767-14.93-23.307-27.202-29.635l-182.851-94.276c-4.323-2.229-8.923-3.278-13.442-3.279-11.531,0-22.554,6.829-27.226,18.326"/></clipPath><linearGradient id="linear-gradient-26" x1="3295.719" y1="1080.378" x2="3296.719" y2="1080.378" gradientTransform="translate(279288.811 -843004.716) rotate(90) scale(255.975)" xlink:href="#linear-gradient-4"/><clipPath id="clippath-40"><path class="cls-40" d="M2684.277,242.667c-19.41,0-37.014,11.762-44.444,29.693l-213.604,515.486c-9.77,23.58,7.539,49.487,33.062,49.487h100.689l75.894-186.763c6.503-16.002,25.315-22.963,40.668-15.047l182.851,94.276c12.272,6.328,21.947,16.868,27.202,29.635l32.069,77.899h102.044c25.523,0,42.833-25.907,33.063-49.487l-56.561-136.495-279.963-142.315c-16.131-8.2-23.185-27.503-16.143-44.172l93.87-222.197h-110.697Z"/></clipPath><linearGradient id="linear-gradient-27" x1="3298.595" y1="1081.055" x2="3299.595" y2="1081.055" gradientTransform="translate(679570.607 -2064834.613) rotate(90) scale(626.083)" xlink:href="#linear-gradient"/><clipPath id="clippath-41"><path class="cls-40" d="M2816.834,275.684l-78.213,185.94c-3.905,9.269.018,19.995,8.98,24.558l203.528,103.689,16.14-10.779-204.491-104.337c-5.377-2.745-7.734-9.181-5.399-14.75l78.881-188.014-19.426,3.693Z"/></clipPath><linearGradient id="linear-gradient-28" x1="3292.742" y1="1099.638" x2="3293.742" y2="1099.638" gradientTransform="translate(60626.559 -172591.696) rotate(90) scale(52.541)" xlink:href="#linear-gradient-7"/><clipPath id="clippath-42"><path class="cls-40" d="M2757.379,460.005c-2.335,5.569.022,12.005,5.399,14.75l204.491,104.337-118.9-286.938c-3.066-7.399-7.175-14.166-12.109-20.163l-78.881,188.014Z"/></clipPath><linearGradient id="linear-gradient-29" x1="3294.782" y1="1080" x2="3295.782" y2="1080" gradientTransform="translate(-691745.865 -227226.135) scale(210.789)" xlink:href="#linear-gradient-7"/><clipPath id="clippath-43"><path class="cls-40" d="M2659.873,688.46l-54.124,132.602,12.922,16.271,53.201-129.928c4.375-10.765,9.528-12.235,19.856-6.909l128.372,64.495c8.255,4.256,14.763,11.348,18.299,19.935l21.574,52.407,14.108-13.253-19.616-47.651c-4.111-9.982-11.673-18.222-21.266-23.169l-146.533-74.421c-3.933-2.029-7.62-3.038-10.979-3.038-6.889-.001-12.397,4.247-15.814,12.659"/></clipPath><linearGradient id="linear-gradient-30" x1="3266.115" y1="1076.611" x2="3267.115" y2="1076.611" gradientTransform="translate(-102824.898 -34019.46) scale(32.301)" xlink:href="#linear-gradient-9"/><clipPath id="clippath-44"><path class="cls-40" d="M2682.229,697.502c-4.507,0-7.588,3.09-10.357,9.903l-53.201,129.928h241.302l-21.574-52.407c-3.536-8.587-10.044-15.679-18.299-19.935l-128.372-64.495c-3.789-1.954-6.883-2.994-9.495-2.994h-.004"/></clipPath><linearGradient id="linear-gradient-31" x1="3295.441" y1="1080" x2="3296.441" y2="1080" gradientTransform="translate(-792577.935 -259838.745) scale(241.302)" xlink:href="#linear-gradient-9"/><clipPath id="clippath-45"><rect class="cls-40" x="3300" width="1080" height="1080"/></clipPath><clipPath id="clippath-46"><rect class="cls-40" x="3300" width="1080" height="1080"/></clipPath><clipPath id="clippath-47"><rect class="cls-40" x="2200" width="1080" height="1080"/></clipPath><clipPath id="clippath-48"><path class="cls-40" d="M2684.277,242.667c-19.41,0-37.014,11.762-44.444,29.693l-213.604,515.486c-9.77,23.58,7.539,49.487,33.062,49.487h100.689l75.894-186.763c6.503-16.002,25.315-22.963,40.668-15.047l182.851,94.276c12.272,6.328,21.947,16.868,27.202,29.635l32.069,77.899h102.044c25.523,0,42.833-25.907,33.063-49.487l-56.561-136.495-279.963-142.315c-16.131-8.2-23.185-27.503-16.143-44.172l93.87-222.197h-110.697Z"/></clipPath><clipPath id="clippath-49"><rect class="cls-40" x="2307.939" y="102.729" width="864.123" height="874.542" transform="translate(662.363 2406.18) rotate(-53.08)"/></clipPath><linearGradient id="linear-gradient-32" x1="3300" y1="1080" x2="3301" y2="1080" gradientTransform="translate(678910.053 -2065713.963) rotate(90) scale(626.083)" xlink:href="#linear-gradient"/><clipPath id="clippath-50"><rect class="cls-40" x="3300" width="1080" height="1080"/></clipPath><clipPath id="clippath-51"><path class="cls-40" d="M3529.145,519.97c-1.575,3.735.005,8.058,3.618,9.896l62.363,31.733.627-5.16-58.618-29.863c-2.582-1.314-3.711-4.404-2.587-7.073l22.526-53.554-4.203-2.255-23.726,56.276Z"/></clipPath><linearGradient id="linear-gradient-33" x1="3300" y1="1080" x2="3301" y2="1080" gradientTransform="translate(-112903.476 356405.519) rotate(-90) scale(107.838)" xlink:href="#linear-gradient-2"/><clipPath id="clippath-52"><path class="cls-40" d="M3508.412,579.379l-17.681,43.424,5.548.221,15.589-38.191c1.463-3.603,4.26-4.553,7.717-2.771l42.203,21.436c2.762,1.424,4.94,3.798,6.124,6.671l5.65,13.724,5.441-.469-6.463-15.702c-1.349-3.276-3.832-5.979-6.981-7.604l-47.432-24.294c-1.185-.61-2.385-.904-3.529-.904-2.661,0-5.019,1.587-6.186,4.459"/></clipPath><linearGradient id="linear-gradient-34" x1="3300" y1="1080" x2="3301" y2="1080" gradientTransform="translate(126592.512 -375441.993) rotate(90) scale(113.942)" xlink:href="#linear-gradient-2"/><clipPath id="clippath-53"><path class="cls-40" d="M3523.743,520.435c-2.028,4.801.003,10.362,4.649,12.722l80.633,40.989-13.899-12.547-62.363-31.733c-3.613-1.838-5.193-6.161-3.618-9.896l23.726-56.276-2.393-6.543-26.735,63.284Z"/></clipPath><linearGradient id="linear-gradient-35" x1="3300" y1="1080" x2="3301" y2="1080" gradientTransform="translate(-127204.402 400167.256) rotate(-90) scale(121.083)" xlink:href="#linear-gradient-4"/><clipPath id="clippath-54"><path class="cls-40" d="M3504.956,573.921l-21.858,53.789,7.633-4.907,17.681-43.424c1.669-4.108,5.775-5.586,9.715-3.555l47.432,24.294c3.149,1.625,5.632,4.328,6.981,7.604l6.463,15.702,7.399,4.286-9.235-22.436c-1.514-3.675-4.301-6.712-7.835-8.533l-52.663-27.154c-1.245-.642-2.57-.944-3.871-.944-3.322,0-6.496,1.966-7.842,5.278"/></clipPath><linearGradient id="linear-gradient-36" x1="3300" y1="1080" x2="3301" y2="1080" gradientTransform="translate(83156.386 -242724.182) rotate(90) scale(73.724)" xlink:href="#linear-gradient-4"/><clipPath id="clippath-55"><path class="cls-40" d="M3518.896,456.44c-5.59,0-10.66,3.387-12.8,8.551l-61.52,148.466c-2.814,6.792,2.171,14.253,9.522,14.253h29l21.858-53.789c1.873-4.61,7.291-6.614,11.713-4.334l52.663,27.154c3.534,1.821,6.321,4.858,7.835,8.533l9.235,22.436h29.391c7.35,0,12.336-7.461,9.522-14.253l-16.29-39.311-80.633-40.989c-4.646-2.36-6.677-7.921-4.649-12.722l27.036-63.995h-31.883Z"/></clipPath><linearGradient id="linear-gradient-37" x1="3300" y1="1080" x2="3301" y2="1080" gradientTransform="translate(198279.764 -594563.099) rotate(90) scale(180.319)" xlink:href="#linear-gradient"/><clipPath id="clippath-56"><path class="cls-40" d="M3557.074,465.949l-22.526,53.554c-1.124,2.669.005,5.759,2.587,7.073l58.618,29.863,4.648-3.105-58.895-30.051c-1.549-.79-2.227-2.644-1.555-4.248l22.718-54.15-5.595,1.064Z"/></clipPath><linearGradient id="linear-gradient-38" x1="3300" y1="1080" x2="3301" y2="1080" gradientTransform="translate(19909.79 -49431.689) rotate(90) scale(15.132)" xlink:href="#linear-gradient-7"/><clipPath id="clippath-57"><path class="cls-40" d="M3539.951,519.035c-.672,1.604.006,3.458,1.555,4.248l58.895,30.051-34.244-82.64c-.884-2.131-2.066-4.081-3.488-5.809l-22.718,54.15Z"/></clipPath><linearGradient id="linear-gradient-39" x1="3300" y1="1080" x2="3301" y2="1080" gradientTransform="translate(-196801.883 -65057.224) scale(60.71)" xlink:href="#linear-gradient-7"/><clipPath id="clippath-58"><path class="cls-40" d="M3511.868,584.833l-15.589,38.191,3.723,4.686,15.322-37.42c1.259-3.1,2.744-3.523,5.719-1.991l36.972,18.576c2.377,1.226,4.252,3.268,5.27,5.742l6.214,15.093,4.063-3.817-5.65-13.724c-1.184-2.873-3.362-5.247-6.124-6.671l-42.203-21.436c-1.133-.584-2.195-.874-3.162-.874-1.985,0-3.571,1.224-4.555,3.645"/></clipPath><linearGradient id="linear-gradient-40" x1="3300" y1="1080" x2="3301" y2="1080" gradientTransform="translate(-27184.209 -9442.976) scale(9.303)" xlink:href="#linear-gradient-9"/><clipPath id="clippath-59"><path class="cls-40" d="M3515.324,590.29l-15.322,37.42h69.497l-6.214-15.093c-1.018-2.474-2.893-4.516-5.27-5.742l-36.972-18.576c-1.092-.563-1.983-.862-2.736-.862-1.298,0-2.186.89-2.983,2.853"/></clipPath><linearGradient id="linear-gradient-41" x1="3300" y1="1080" x2="3301" y2="1080" gradientTransform="translate(-225840.078 -74449.18) scale(69.497)" xlink:href="#linear-gradient-9"/><clipPath id="clippath-60"><rect class="cls-40" x="3300" width="1080" height="1080"/></clipPath></defs><g class="cls-102"><g class="cls-50"><g class="cls-89"><g class="cls-66"><g class="cls-16"><rect class="cls-98" x="787.945" y="-312.261" width="1704.111" height="1704.522" transform="translate(223.135 1526.759) rotate(-53.08)"/></g></g></g></g><path class="cls-31" d="M395.792,454.171h33.478l38.741,72.219h-31.704l-5.694-12.358h-36.164l-5.694,12.358h-31.703l38.74-72.219ZM402.617,496.406h19.828l-9.887-21.331-9.941,21.331Z"/><g class="cls-59"><path class="cls-31" d="M539.797,454.118c14.885-.162,27.512,12.359,27.297,27.297,0,5.426-1.451,10.37-4.353,14.776-2.848,4.353-6.663,7.683-11.392,9.887l15.745,20.258h-29.983l-13.595-17.624h-25.148v17.624h-28.156v-72.218h69.585ZM498.368,475.236v12.304h34.337c1.719,0,3.169-.591,4.353-1.772,1.234-1.237,1.825-2.687,1.825-4.353,0-3.439-2.739-6.179-6.178-6.179h-34.337Z"/><path class="cls-31" d="M645.432,454.118c14.885-.162,27.512,12.359,27.297,27.297,0,5.426-1.451,10.37-4.353,14.776-2.848,4.353-6.663,7.683-11.392,9.887l15.745,20.258h-29.983l-13.595-17.624h-25.148v17.624h-28.156v-72.218h69.585ZM604.003,475.236v12.304h34.337c1.719,0,3.169-.591,4.353-1.772,1.234-1.237,1.825-2.687,1.825-4.353,0-3.439-2.739-6.179-6.178-6.179h-34.337Z"/><path class="cls-31" d="M777.986,487.541v5.266c.106,27.295-22.139,35.196-49.274,35.249-27.191-.053-49.436-7.954-49.328-35.249v-5.266c-.108-27.351,22.137-35.196,49.328-35.251,27.188,0,49.274,7.953,49.274,35.251M749.828,489.26c.161-11.769-9.618-13.917-21.116-14.079-11.554.162-21.333,2.31-21.172,14.079v1.773c-.161,11.821,9.618,13.97,21.172,14.132,11.498-.162,21.277-2.311,21.116-14.132v-1.773Z"/><polygon class="cls-31" points="904.518 454.171 936.221 454.171 904.518 526.389 871.042 526.389 855.191 490.28 839.339 526.389 805.863 526.389 774.16 454.171 805.863 454.171 822.574 499.9 839.339 454.171 871.042 454.171 887.752 499.9 904.518 454.171"/><polygon class="cls-31" points="462.492 554.894 547.015 554.894 547.015 573.304 490.648 573.304 490.648 582.508 547.015 582.508 547.015 599.153 490.648 599.153 490.648 608.356 547.015 608.356 547.015 626.819 462.492 626.819 462.492 554.894"/></g><g class="cls-8"><rect class="cls-17" x="220.439" y="459.028" width="82.446" height="107.237" transform="translate(-75.82 46.407) rotate(-8.858)"/></g><g class="cls-9"><rect class="cls-48" x="197.839" y="549.836" width="74.056" height="99.142" transform="translate(-407.89 635.655) rotate(-71.831)"/></g><g class="cls-62"><rect class="cls-41" x="193.656" y="443.031" width="143.427" height="145.236" transform="translate(-278.757 315.047) rotate(-42.531)"/></g><g class="cls-27"><rect class="cls-52" x="200.791" y="544.129" width="67.918" height="108.096" transform="translate(-381.745 779.442) rotate(-84.958)"/></g><g class="cls-28"><rect class="cls-82" x="110.507" y="416.136" width="248.877" height="251.878" transform="translate(-339.561 404.283) rotate(-53.08)"/></g><g class="cls-38"><rect class="cls-75" x="219.632" y="456.115" width="94.561" height="109.095" transform="translate(-160.471 124.189) rotate(-20.283)"/></g><g class="cls-68"><rect class="cls-63" x="239.279" y="464.885" width="61.122" height="88.449"/></g><g class="cls-96"><rect class="cls-78" x="194.156" y="577.458" width="81.529" height="53.981" transform="translate(-58.979 26.375) rotate(-5.711)"/></g><g class="cls-71"><rect class="cls-21" x="200.002" y="587.437" width="69.497" height="40.273"/></g><g class="cls-12"><path class="cls-31" d="M358.986,554.894h75.001c13.851,0,19.083,8.674,19.083,16.607,0,9.308-1.437,13.432-6.772,17.875,7.081,2.539,10.466,8.039,10.466,17.665,0,12.058-5.951,19.779-23.085,19.779h-74.693v-71.926ZM389.15,583.559h32.524c4.515,0,4.31-6.981,0-6.981-4.617,0-21.238.106-32.524.106v6.875ZM389.15,605.135h35.09c4.308,0,4.925-6.875,0-6.875h-35.09v6.875Z"/><path class="cls-31" d="M763.328,603.043c0,19-12.619,23.776-28.83,23.776h-44.94c-21.033,0-29.343-8.129-29.343-25.91h28.728c.308,3.861,4.515,3.963,8.106,3.963,10.978,0,30.164.101,35.191.101,2.771,0,3.797-1.118,3.797-3.963,0-1.829-1.231-2.641-4.002-2.641-14.158-.305-28.83-.712-42.989-1.118-17.955,0-28.729-3.658-28.729-18.899,0-19.001,12.62-23.776,28.831-23.776h43.4c20.93,0,29.241,8.129,29.241,25.91h-28.728c-.307-3.963-4.412-4.065-8.105-4.065h-33.551c-2.769,0-3.796,1.017-3.796,3.862,0,1.829,1.027,2.54,3.796,2.54,14.159.304,28.831.711,43.093,1.118,17.955,0,28.83,3.86,28.83,19.102"/><polygon class="cls-31" points="589.294 626.819 589.519 573.292 556.043 573.292 555.818 554.941 650.926 554.941 651.151 573.292 617.675 573.292 617.45 626.819 589.294 626.819"/></g></g><g class="cls-88"><rect x="1100" width="1080" height="1080"/><g class="cls-10"><rect class="cls-79" x="1589.629" y="251.649" width="286.261" height="372.34" transform="translate(-46.751 272.043) rotate(-8.858)"/></g><g class="cls-14"><rect class="cls-22" x="1511.161" y="566.945" width="257.132" height="344.228" transform="translate(426.213 2066.575) rotate(-71.831)"/></g><g class="cls-77"><rect class="cls-4" x="1496.639" y="196.104" width="497.994" height="504.274" transform="translate(156.249 1297.955) rotate(-42.531)"/></g><g class="cls-60"><rect class="cls-70" x="1521.411" y="547.127" width="235.822" height="375.322" transform="translate(763.291 2303.182) rotate(-84.958)"/></g><g class="cls-7"><rect class="cls-3" x="1207.939" y="102.729" width="864.123" height="874.542" transform="translate(223.135 1526.759) rotate(-53.08)"/></g><g class="cls-18"><rect class="cls-97" x="1586.829" y="241.539" width="328.327" height="378.784" transform="translate(-40.811 633.703) rotate(-20.283)"/></g><g class="cls-19"><rect class="cls-74" x="1655.044" y="271.991" width="212.225" height="307.101"/></g><g class="cls-99"><rect class="cls-104" x="1498.378" y="662.851" width="283.073" height="187.431" transform="translate(-67.143 166.932) rotate(-5.711)"/></g><g class="cls-34"><rect class="cls-81" x="1518.671" y="697.502" width="241.302" height="139.831"/></g><g class="cls-67"><g class="cls-35"><g class="cls-47"><g class="cls-90"><rect class="cls-73" x="1887.945" y="-312.261" width="1704.111" height="1704.522" transform="translate(662.364 2406.18) rotate(-53.08)"/></g></g></g></g></g><g class="cls-76"><g class="cls-11"><g class="cls-80"><g class="cls-13"><g class="cls-2"><rect class="cls-87" x="787.945" y="-312.261" width="1704.111" height="1704.522" transform="translate(223.135 1526.759) rotate(-53.08)"/></g></g></g></g><g class="cls-45"><rect class="cls-54" x="1981.465" y="-218.534" width="1517.069" height="1517.069" transform="translate(256.1 1816.496) rotate(-38.348)"/></g><g class="cls-44"><rect class="cls-100" x="2689.629" y="251.649" width="286.261" height="372.34" transform="translate(-33.632 441.428) rotate(-8.858)"/></g><g class="cls-93"><rect class="cls-55" x="2611.161" y="566.945" width="257.132" height="344.228" transform="translate(1183.208 3111.73) rotate(-71.831)"/></g><g class="cls-6"><rect class="cls-20" x="2596.639" y="196.104" width="497.994" height="504.274" transform="translate(445.645 2041.541) rotate(-42.531)"/></g><g class="cls-85"><rect class="cls-37" x="2621.411" y="547.127" width="235.822" height="375.322" transform="translate(1766.608 3398.925) rotate(-84.958)"/></g><g class="cls-58"><rect class="cls-24" x="2307.939" y="102.729" width="864.123" height="874.542" transform="translate(662.364 2406.18) rotate(-53.08)"/></g><g class="cls-65"><rect class="cls-5" x="2686.829" y="241.539" width="328.327" height="378.784" transform="translate(27.395 1015.019) rotate(-20.283)"/></g><g class="cls-29"><rect class="cls-72" x="2755.044" y="271.991" width="212.225" height="307.101"/></g><g class="cls-33"><rect class="cls-43" x="2598.378" y="662.851" width="283.073" height="187.431" transform="translate(-61.683 276.386) rotate(-5.711)"/></g><g class="cls-103"><rect class="cls-101" x="2618.671" y="697.502" width="241.302" height="139.831"/></g></g><g class="cls-56"><g class="cls-57"><g class="cls-15"><g class="cls-46"><g class="cls-91"><rect class="cls-92" x="1887.945" y="-312.261" width="1704.111" height="1704.522" transform="translate(662.364 2406.18) rotate(-53.08)"/></g></g></g></g><path d="M3695.792,454.171h33.478l38.741,72.219h-31.704l-5.694-12.358h-36.164l-5.694,12.358h-31.703l38.74-72.219ZM3702.617,496.406h19.828l-9.887-21.331-9.941,21.331Z"/><g class="cls-69"><path d="M3839.797,454.118c14.885-.162,27.512,12.359,27.297,27.297,0,5.426-1.451,10.37-4.353,14.776-2.848,4.353-6.663,7.683-11.392,9.887l15.745,20.258h-29.983l-13.595-17.624h-25.148v17.624h-28.156v-72.218h69.585ZM3798.368,475.236v12.304h34.337c1.719,0,3.169-.591,4.353-1.772,1.234-1.237,1.825-2.687,1.825-4.353,0-3.439-2.739-6.179-6.178-6.179h-34.337Z"/><path d="M3945.432,454.118c14.885-.162,27.512,12.359,27.297,27.297,0,5.426-1.451,10.37-4.353,14.776-2.848,4.353-6.663,7.683-11.392,9.887l15.745,20.258h-29.983l-13.595-17.624h-25.148v17.624h-28.156v-72.218h69.585ZM3904.003,475.236v12.304h34.337c1.719,0,3.169-.591,4.353-1.772,1.234-1.237,1.825-2.687,1.825-4.353,0-3.439-2.739-6.179-6.178-6.179h-34.337Z"/><path d="M4077.986,487.541v5.266c.106,27.295-22.139,35.196-49.274,35.249-27.191-.053-49.436-7.954-49.328-35.249v-5.266c-.108-27.351,22.137-35.196,49.328-35.251,27.188,0,49.274,7.953,49.274,35.251M4049.828,489.26c.161-11.769-9.618-13.917-21.116-14.079-11.554.162-21.333,2.31-21.172,14.079v1.773c-.161,11.821,9.618,13.97,21.172,14.132,11.498-.162,21.277-2.311,21.116-14.132v-1.773Z"/><polygon points="4204.518 454.171 4236.221 454.171 4204.518 526.389 4171.042 526.389 4155.191 490.28 4139.339 526.389 4105.863 526.389 4074.16 454.171 4105.863 454.171 4122.574 499.9 4139.339 454.171 4171.042 454.171 4187.752 499.9 4204.518 454.171"/><polygon points="3762.492 554.894 3847.015 554.894 3847.015 573.304 3790.648 573.304 3790.648 582.508 3847.015 582.508 3847.015 599.153 3790.648 599.153 3790.648 608.356 3847.015 608.356 3847.015 626.819 3762.492 626.819 3762.492 554.894"/></g><g class="cls-1"><rect class="cls-61" x="3520.439" y="459.028" width="82.446" height="107.237" transform="translate(-36.461 554.561) rotate(-8.858)"/></g><g class="cls-64"><rect class="cls-49" x="3497.839" y="549.836" width="74.056" height="99.142" transform="translate(1863.096 3771.118) rotate(-71.831)"/></g><g class="cls-84"><rect class="cls-42" x="3493.656" y="443.031" width="143.427" height="145.236" transform="translate(589.431 2545.807) rotate(-42.531)"/></g><g class="cls-25"><rect class="cls-86" x="3500.791" y="544.129" width="67.918" height="108.096" transform="translate(2628.206 4066.671) rotate(-84.958)"/></g><g class="cls-83"><rect class="cls-26" x="3410.507" y="416.136" width="248.877" height="251.878" transform="translate(978.126 3042.547) rotate(-53.08)"/></g><g class="cls-51"><rect class="cls-53" x="3519.632" y="456.115" width="94.561" height="109.095" transform="translate(44.148 1268.138) rotate(-20.283)"/></g><g class="cls-39"><rect class="cls-32" x="3539.279" y="464.885" width="61.122" height="88.449"/></g><g class="cls-95"><rect class="cls-23" x="3494.156" y="577.458" width="81.529" height="53.981" transform="translate(-42.602 354.738) rotate(-5.711)"/></g><g class="cls-30"><rect class="cls-94" x="3500.002" y="587.437" width="69.497" height="40.273"/></g><g class="cls-36"><path d="M3658.986,554.894h75.001c13.851,0,19.083,8.674,19.083,16.607,0,9.308-1.437,13.432-6.772,17.875,7.081,2.539,10.466,8.039,10.466,17.665,0,12.058-5.951,19.779-23.085,19.779h-74.693v-71.926ZM3689.15,583.559h32.524c4.515,0,4.31-6.981,0-6.981-4.617,0-21.238.106-32.524.106v6.875ZM3689.15,605.135h35.09c4.308,0,4.925-6.875,0-6.875h-35.09v6.875Z"/><path d="M4063.328,603.043c0,19-12.619,23.776-28.83,23.776h-44.94c-21.033,0-29.343-8.129-29.343-25.91h28.728c.308,3.861,4.515,3.963,8.106,3.963,10.978,0,30.164.101,35.191.101,2.771,0,3.797-1.118,3.797-3.963,0-1.829-1.231-2.641-4.002-2.641-14.158-.305-28.83-.712-42.989-1.118-17.955,0-28.729-3.658-28.729-18.899,0-19.001,12.62-23.776,28.831-23.776h43.4c20.93,0,29.241,8.129,29.241,25.91h-28.728c-.307-3.963-4.412-4.065-8.105-4.065h-33.551c-2.769,0-3.796,1.017-3.796,3.862,0,1.829,1.027,2.54,3.796,2.54,14.159.304,28.831.711,43.093,1.118,17.955,0,28.83,3.86,28.83,19.102"/><polygon points="3889.294 626.819 3889.519 573.292 3856.043 573.292 3855.818 554.941 3950.926 554.941 3951.151 573.292 3917.675 573.292 3917.45 626.819 3889.294 626.819"/></g></g></svg>